<?xml version="1.0" encoding="UTF-8"?>
<svg width="167pt" version="1.1" xmlns="http://www.w3.org/2000/svg" height="27pt" viewBox="0 0 167 27" xmlns:xlink="http://www.w3.org/1999/xlink">
 <defs>
  <path id="GlCourierNewPS-BoldMT95" d="M5.77156 13.003 L0.273438 13.003 C0.273438 13.003 -0.0879687 13.003 -0.241719 12.8663 C-0.241719 12.8663 -0.395469 12.7295 -0.395469 12.5048 C-0.395469 12.5048 -0.395469 12.2803 -0.241719 12.1411 C-0.241719 12.1411 -0.0879687 12.002 0.273438 12.002 L5.77156 12.002 C5.77156 12.002 6.12797 12.002 6.28172 12.1411 C6.28172 12.1411 6.43562 12.2803 6.43562 12.5048 C6.43562 12.5048 6.43562 12.7247 6.28422 12.8637 C6.28422 12.8637 6.13281 13.003 5.77156 13.003 Z"/>
  <path id="GlCourierNewPS-BoldMT60" d="M1.95312 7.14844 L5.19531 8.94531 C5.19531 8.94531 5.43953 9.08203 5.52 9.18953 C5.52 9.18953 5.60062 9.29688 5.60062 9.46281 C5.60062 9.46281 5.60062 9.67281 5.44922 9.82672 C5.44922 9.82672 5.29781 9.98047 5.09766 9.98047 C5.09766 9.98047 4.96578 9.98047 4.70219 9.83391 L-0.127031 7.14844 L4.70219 4.46281 C4.70219 4.46281 4.96578 4.32125 5.09281 4.32125 C5.09281 4.32125 5.29781 4.32125 5.44922 4.47266 C5.44922 4.47266 5.60062 4.62406 5.60062 4.83391 C5.60062 4.83391 5.60062 5 5.52 5.1075 C5.52 5.1075 5.43953 5.21484 5.19531 5.35156 L1.95312 7.14844 Z"/>
  <path id="GlCourierNewPS-BoldMT47" d="M5.06344 3.79875 L1.85547 10.713 C1.85547 10.713 1.73344 10.9717 1.63578 11.0498 C1.63578 11.0498 1.50875 11.1523 1.32812 11.1523 C1.32812 11.1523 1.12312 11.1523 0.974063 11.0058 C0.974063 11.0058 0.825156 10.8594 0.825156 10.6739 C0.825156 10.6739 0.825156 10.542 0.942344 10.2881 L4.16016 3.37891 C4.16016 3.37891 4.28219 3.12016 4.375 3.04203 C4.375 3.04203 4.50687 2.93938 4.68266 2.93938 C4.68266 2.93938 4.88766 2.93938 5.03406 3.08344 C5.03406 3.08344 5.18063 3.2275 5.18063 3.41312 C5.18063 3.41312 5.18063 3.54484 5.06344 3.79875 Z"/>
  <path id="GlCourierNewPS-BoldMT92" d="M1.85547 3.37891 L5.06844 10.2637 C5.06844 10.2637 5.09281 10.3173 5.15141 10.5127 C5.15141 10.5127 5.18063 10.625 5.18063 10.6836 C5.18063 10.6836 5.18063 10.8594 5.04141 10.9913 C5.04141 10.9913 4.90234 11.1231 4.69734 11.1231 C4.69734 11.1231 4.50687 11.1231 4.39453 11.0352 C4.39453 11.0352 4.28219 10.9473 4.16016 10.6934 L0.952187 3.80375 C0.952187 3.80375 0.830156 3.54484 0.830156 3.41797 C0.830156 3.41797 0.830156 3.23234 0.979063 3.08594 C0.979063 3.08594 1.12797 2.93938 1.32812 2.93938 C1.32812 2.93938 1.50875 2.93938 1.62109 3.02734 C1.62109 3.02734 1.73344 3.11516 1.85547 3.37891 Z"/>
  <path id="GlCourierNewPS-BoldMT124" d="M3.50594 4.64359 L3.50594 10.6006 C3.50594 10.6006 3.50594 11.1133 3.48141 11.2109 C3.48141 11.2109 3.44234 11.3575 3.30812 11.46 C3.30812 11.46 3.17391 11.5625 3.00781 11.5625 C3.00781 11.5625 2.83688 11.5625 2.70266 11.46 C2.70266 11.46 2.56844 11.3575 2.52937 11.2012 C2.52937 11.2012 2.50484 11.1133 2.50484 10.6006 L2.50484 4.64359 C2.50484 4.64359 2.50484 4.13078 2.52937 4.03313 C2.52937 4.03313 2.56844 3.88672 2.70266 3.78422 C2.70266 3.78422 2.83688 3.68156 3.00781 3.68156 C3.00781 3.68156 3.17391 3.68156 3.30812 3.78422 C3.30812 3.78422 3.44234 3.88672 3.48141 4.03812 C3.48141 4.03812 3.50594 4.13578 3.50594 4.64359 Z"/>
  <path id="GlCourierNewPS-BoldMT40" d="M2.64156 7.56828 C2.64156 7.56828 2.64156 6.71391 2.92484 5.83984 C2.92484 5.83984 3.13484 5.19531 3.57422 4.40422 C3.57422 4.40422 3.89156 3.83781 4.04297 3.70844 C4.04297 3.70844 4.19437 3.57906 4.37984 3.57906 C4.37984 3.57906 4.59469 3.57906 4.74109 3.72562 C4.74109 3.72562 4.88766 3.87203 4.88766 4.07719 C4.88766 4.07719 4.88766 4.21875 4.77047 4.41406 C4.77047 4.41406 4.24313 5.27828 4.00141 6.03516 C4.00141 6.03516 3.75984 6.79203 3.75984 7.56828 C3.75984 7.56828 3.75984 8.34953 4.00141 9.10641 C4.00141 9.10641 4.24313 9.86328 4.77047 10.7275 C4.77047 10.7275 4.88766 10.918 4.88766 11.0645 C4.88766 11.0645 4.88766 11.2695 4.74109 11.4159 C4.74109 11.4159 4.59469 11.5625 4.37984 11.5625 C4.37984 11.5625 4.19922 11.5625 4.0625 11.4453 C4.0625 11.4453 3.86719 11.2744 3.545 10.6788 C3.545 10.6788 3.08109 9.81438 2.91016 9.25297 C2.91016 9.25297 2.64156 8.39359 2.64156 7.56828 Z"/>
  <path id="GlCourierNewPS-BoldMT41" d="M3.42781 7.56828 C3.42781 7.56828 3.42781 8.42281 3.14453 9.30172 C3.14453 9.30172 2.93453 9.94625 2.49516 10.7325 C2.49516 10.7325 2.17781 11.2989 2.02641 11.4306 C2.02641 11.4306 1.875 11.5625 1.68953 11.5625 C1.68953 11.5625 1.47469 11.5625 1.32812 11.4159 C1.32812 11.4159 1.18172 11.2695 1.18172 11.0645 C1.18172 11.0645 1.18172 10.918 1.29891 10.7275 C1.29891 10.7275 1.82625 9.86328 2.06781 9.10641 C2.06781 9.10641 2.30953 8.34953 2.30953 7.56828 C2.30953 7.56828 2.30953 6.79203 2.06781 6.03516 C2.06781 6.03516 1.82625 5.27828 1.29891 4.41406 C1.29891 4.41406 1.18172 4.21875 1.18172 4.07719 C1.18172 4.07719 1.18172 3.87203 1.32812 3.72562 C1.32812 3.72562 1.47469 3.57906 1.68953 3.57906 C1.68953 3.57906 1.87016 3.57906 2.00687 3.69625 C2.00687 3.69625 2.20219 3.86234 2.52438 4.46281 C2.52438 4.46281 2.98828 5.32719 3.15922 5.88375 C3.15922 5.88375 3.42781 6.74797 3.42781 7.56828 Z"/>
 </defs>
 <g id="Hintergrund">
  <path style="fill:#ffffff; fill-rule:evenodd;stroke:none;" d="M0 0 L167 0 L167 27 L0 27 L0 0 Z" transform="translate(0, 0)"/>
  <g transform="translate(0, 0)">
   <use style="fill:#ff0000;stroke:none;" xlink:href="#GlCourierNewPS-BoldMT95" transform="matrix(0.6 0 0 0.6 10.8018 -6)"/>
   <use style="fill:#ff0000;stroke:none;" xlink:href="#GlCourierNewPS-BoldMT95" transform="matrix(0.6 0 0 0.6 14.4023 -6)"/>
   <use style="fill:#ff0000;stroke:none;" xlink:href="#GlCourierNewPS-BoldMT95" transform="matrix(0.6 0 0 0.6 18.0029 -6)"/>
   <use style="fill:#ff0000;stroke:none;" xlink:href="#GlCourierNewPS-BoldMT95" transform="matrix(0.6 0 0 0.6 21.6035 -6)"/>
   <use style="fill:#ff0000;stroke:none;" xlink:href="#GlCourierNewPS-BoldMT95" transform="matrix(0.6 0 0 0.6 25.2041 -6)"/>
   <use style="fill:#ff0000;stroke:none;" xlink:href="#GlCourierNewPS-BoldMT95" transform="matrix(0.6 0 0 0.6 28.8047 -6)"/>
   <use style="fill:#ff0000;stroke:none;" xlink:href="#GlCourierNewPS-BoldMT95" transform="matrix(0.6 0 0 0.6 32.4053 -6)"/>
   <use style="fill:#ff0000;stroke:none;" xlink:href="#GlCourierNewPS-BoldMT95" transform="matrix(0.6 0 0 0.6 39.6064 -6)"/>
   <use style="fill:#ff0000;stroke:none;" xlink:href="#GlCourierNewPS-BoldMT95" transform="matrix(0.6 0 0 0.6 43.207 -6)"/>
   <use style="fill:#ff0000;stroke:none;" xlink:href="#GlCourierNewPS-BoldMT95" transform="matrix(0.6 0 0 0.6 46.8076 -6)"/>
   <use style="fill:#ff0000;stroke:none;" xlink:href="#GlCourierNewPS-BoldMT95" transform="matrix(0.6 0 0 0.6 79.2129 -6)"/>
   <use style="fill:#ff0000;stroke:none;" xlink:href="#GlCourierNewPS-BoldMT95" transform="matrix(0.6 0 0 0.6 82.8135 -6)"/>
   <use style="fill:#ff0000;stroke:none;" xlink:href="#GlCourierNewPS-BoldMT60" transform="matrix(0.6 0 0 0.6 7.20117 0)"/>
   <use style="fill:#ff0000;stroke:none;" xlink:href="#GlCourierNewPS-BoldMT47" transform="matrix(0.6 0 0 0.6 18.0029 0)"/>
   <use style="fill:#ff0000;stroke:none;" xlink:href="#GlCourierNewPS-BoldMT95" transform="matrix(0.6 0 0 0.6 25.2041 0)"/>
   <use style="fill:#ff0000;stroke:none;" xlink:href="#GlCourierNewPS-BoldMT95" transform="matrix(0.6 0 0 0.6 28.8047 0)"/>
   <use style="fill:#ff0000;stroke:none;" xlink:href="#GlCourierNewPS-BoldMT92" transform="matrix(0.6 0 0 0.6 36.0059 0)"/>
   <use style="fill:#ff0000;stroke:none;" xlink:href="#GlCourierNewPS-BoldMT95" transform="matrix(0.6 0 0 0.6 39.6064 0)"/>
   <use style="fill:#ff0000;stroke:none;" xlink:href="#GlCourierNewPS-BoldMT95" transform="matrix(0.6 0 0 0.6 43.207 0)"/>
   <use style="fill:#ff0000;stroke:none;" xlink:href="#GlCourierNewPS-BoldMT92" transform="matrix(0.6 0 0 0.6 50.4082 0)"/>
   <use style="fill:#ff0000;stroke:none;" xlink:href="#GlCourierNewPS-BoldMT95" transform="matrix(0.6 0 0 0.6 57.6094 0)"/>
   <use style="fill:#ff0000;stroke:none;" xlink:href="#GlCourierNewPS-BoldMT95" transform="matrix(0.6 0 0 0.6 61.21 0)"/>
   <use style="fill:#ff0000;stroke:none;" xlink:href="#GlCourierNewPS-BoldMT95" transform="matrix(0.6 0 0 0.6 64.8105 0)"/>
   <use style="fill:#ff0000;stroke:none;" xlink:href="#GlCourierNewPS-BoldMT95" transform="matrix(0.6 0 0 0.6 68.4111 0)"/>
   <use style="fill:#ff0000;stroke:none;" xlink:href="#GlCourierNewPS-BoldMT95" transform="matrix(0.6 0 0 0.6 72.0117 0)"/>
   <use style="fill:#ff0000;stroke:none;" xlink:href="#GlCourierNewPS-BoldMT47" transform="matrix(0.6 0 0 0.6 75.6123 0)"/>
   <use style="fill:#ff0000;stroke:none;" xlink:href="#GlCourierNewPS-BoldMT47" transform="matrix(0.6 0 0 0.6 82.8135 0)"/>
   <use style="fill:#ff0000;stroke:none;" xlink:href="#GlCourierNewPS-BoldMT95" transform="matrix(0.6 0 0 0.6 86.4141 0)"/>
   <use style="fill:#ff0000;stroke:none;" xlink:href="#GlCourierNewPS-BoldMT95" transform="matrix(0.6 0 0 0.6 97.2158 0)"/>
   <use style="fill:#ff0000;stroke:none;" xlink:href="#GlCourierNewPS-BoldMT95" transform="matrix(0.6 0 0 0.6 100.816 0)"/>
   <use style="fill:#ff0000;stroke:none;" xlink:href="#GlCourierNewPS-BoldMT95" transform="matrix(0.6 0 0 0.6 104.417 0)"/>
   <use style="fill:#ff0000;stroke:none;" xlink:href="#GlCourierNewPS-BoldMT95" transform="matrix(0.6 0 0 0.6 108.018 0)"/>
   <use style="fill:#ff0000;stroke:none;" xlink:href="#GlCourierNewPS-BoldMT95" transform="matrix(0.6 0 0 0.6 115.219 0)"/>
   <use style="fill:#ff0000;stroke:none;" xlink:href="#GlCourierNewPS-BoldMT95" transform="matrix(0.6 0 0 0.6 140.423 0)"/>
   <use style="fill:#ff0000;stroke:none;" xlink:href="#GlCourierNewPS-BoldMT95" transform="matrix(0.6 0 0 0.6 144.023 0)"/>
   <use style="fill:#ff0000;stroke:none;" xlink:href="#GlCourierNewPS-BoldMT95" transform="matrix(0.6 0 0 0.6 147.624 0)"/>
   <use style="fill:#ff0000;stroke:none;" xlink:href="#GlCourierNewPS-BoldMT95" transform="matrix(0.6 0 0 0.6 151.225 0)"/>
   <use style="fill:#ff0000;stroke:none;" xlink:href="#GlCourierNewPS-BoldMT95" transform="matrix(0.6 0 0 0.6 154.825 0)"/>
   <use style="fill:#ff0000;stroke:none;" xlink:href="#GlCourierNewPS-BoldMT95" transform="matrix(0.6 0 0 0.6 158.426 0)"/>
   <use style="fill:#ff0000;stroke:none;" xlink:href="#GlCourierNewPS-BoldMT95" transform="matrix(0.6 0 0 0.6 162.026 0)"/>
   <use style="fill:#00e900;stroke:none;" xlink:href="#GlCourierNewPS-BoldMT47" transform="matrix(0.6 0 0 0.6 7.20117 6)"/>
   <use style="fill:#00e900;stroke:none;" xlink:href="#GlCourierNewPS-BoldMT47" transform="matrix(0.6 0 0 0.6 14.4023 6)"/>
   <use style="fill:#00e900;stroke:none;" xlink:href="#GlCourierNewPS-BoldMT47" transform="matrix(0.6 0 0 0.6 21.6035 6)"/>
   <use style="fill:#00e900;stroke:none;" xlink:href="#GlCourierNewPS-BoldMT47" transform="matrix(0.6 0 0 0.6 28.8047 6)"/>
   <use style="fill:#00e900;stroke:none;" xlink:href="#GlCourierNewPS-BoldMT47" transform="matrix(0.6 0 0 0.6 36.0059 6)"/>
   <use style="fill:#00e900;stroke:none;" xlink:href="#GlCourierNewPS-BoldMT95" transform="matrix(0.6 0 0 0.6 39.6064 6)"/>
   <use style="fill:#00e900;stroke:none;" xlink:href="#GlCourierNewPS-BoldMT47" transform="matrix(0.6 0 0 0.6 43.207 6)"/>
   <use style="fill:#00e900;stroke:none;" xlink:href="#GlCourierNewPS-BoldMT47" transform="matrix(0.6 0 0 0.6 50.4082 6)"/>
   <use style="fill:#00e900;stroke:none;" xlink:href="#GlCourierNewPS-BoldMT47" transform="matrix(0.6 0 0 0.6 54.0088 6)"/>
   <use style="fill:#00e900;stroke:none;" xlink:href="#GlCourierNewPS-BoldMT95" transform="matrix(0.6 0 0 0.6 61.21 6)"/>
   <use style="fill:#00e900;stroke:none;" xlink:href="#GlCourierNewPS-BoldMT95" transform="matrix(0.6 0 0 0.6 64.8105 6)"/>
   <use style="fill:#00e900;stroke:none;" xlink:href="#GlCourierNewPS-BoldMT95" transform="matrix(0.6 0 0 0.6 68.4111 6)"/>
   <use style="fill:#00e900;stroke:none;" xlink:href="#GlCourierNewPS-BoldMT47" transform="matrix(0.6 0 0 0.6 72.0117 6)"/>
   <use style="fill:#00e900;stroke:none;" xlink:href="#GlCourierNewPS-BoldMT95" transform="matrix(0.6 0 0 0.6 79.2129 6)"/>
   <use style="fill:#00e900;stroke:none;" xlink:href="#GlCourierNewPS-BoldMT95" transform="matrix(0.6 0 0 0.6 82.8135 6)"/>
   <use style="fill:#00e900;stroke:none;" xlink:href="#GlCourierNewPS-BoldMT92" transform="matrix(0.6 0 0 0.6 90.0146 6)"/>
   <use style="fill:#00e900;stroke:none;" xlink:href="#GlCourierNewPS-BoldMT47" transform="matrix(0.6 0 0 0.6 93.6152 6)"/>
   <use style="fill:#00e900;stroke:none;" xlink:href="#GlCourierNewPS-BoldMT95" transform="matrix(0.6 0 0 0.6 100.816 6)"/>
   <use style="fill:#00e900;stroke:none;" xlink:href="#GlCourierNewPS-BoldMT95" transform="matrix(0.6 0 0 0.6 104.417 6)"/>
   <use style="fill:#00e900;stroke:none;" xlink:href="#GlCourierNewPS-BoldMT92" transform="matrix(0.6 0 0 0.6 111.618 6)"/>
   <use style="fill:#00e900;stroke:none;" xlink:href="#GlCourierNewPS-BoldMT124" transform="matrix(0.6 0 0 0.6 118.819 6)"/>
   <use style="fill:#00e900;stroke:none;" xlink:href="#GlCourierNewPS-BoldMT47" transform="matrix(0.6 0 0 0.6 126.021 6)"/>
   <use style="fill:#00e900;stroke:none;" xlink:href="#GlCourierNewPS-BoldMT124" transform="matrix(0.6 0 0 0.6 129.621 6)"/>
   <use style="fill:#00e900;stroke:none;" xlink:href="#GlCourierNewPS-BoldMT47" transform="matrix(0.6 0 0 0.6 136.822 6)"/>
   <use style="fill:#00e900;stroke:none;" xlink:href="#GlCourierNewPS-BoldMT47" transform="matrix(0.6 0 0 0.6 144.023 6)"/>
   <use style="fill:#00e900;stroke:none;" xlink:href="#GlCourierNewPS-BoldMT95" transform="matrix(0.6 0 0 0.6 151.225 6)"/>
   <use style="fill:#00e900;stroke:none;" xlink:href="#GlCourierNewPS-BoldMT95" transform="matrix(0.6 0 0 0.6 154.825 6)"/>
   <use style="fill:#00e900;stroke:none;" xlink:href="#GlCourierNewPS-BoldMT95" transform="matrix(0.6 0 0 0.6 158.426 6)"/>
   <use style="fill:#00e900;stroke:none;" xlink:href="#GlCourierNewPS-BoldMT47" transform="matrix(0.6 0 0 0.6 162.026 6)"/>
   <use style="fill:#00e900;stroke:none;" xlink:href="#GlCourierNewPS-BoldMT47" transform="matrix(0.6 0 0 0.6 3.60059 12)"/>
   <use style="fill:#00e900;stroke:none;" xlink:href="#GlCourierNewPS-BoldMT47" transform="matrix(0.6 0 0 0.6 10.8018 12)"/>
   <use style="fill:#00e900;stroke:none;" xlink:href="#GlCourierNewPS-BoldMT47" transform="matrix(0.6 0 0 0.6 18.0029 12)"/>
   <use style="fill:#00e900;stroke:none;" xlink:href="#GlCourierNewPS-BoldMT95" transform="matrix(0.6 0 0 0.6 21.6035 12)"/>
   <use style="fill:#00e900;stroke:none;" xlink:href="#GlCourierNewPS-BoldMT47" transform="matrix(0.6 0 0 0.6 25.2041 12)"/>
   <use style="fill:#00e900;stroke:none;" xlink:href="#GlCourierNewPS-BoldMT47" transform="matrix(0.6 0 0 0.6 32.4053 12)"/>
   <use style="fill:#00e900;stroke:none;" xlink:href="#GlCourierNewPS-BoldMT95" transform="matrix(0.6 0 0 0.6 39.6064 12)"/>
   <use style="fill:#00e900;stroke:none;" xlink:href="#GlCourierNewPS-BoldMT95" transform="matrix(0.6 0 0 0.6 43.207 12)"/>
   <use style="fill:#00e900;stroke:none;" xlink:href="#GlCourierNewPS-BoldMT47" transform="matrix(0.6 0 0 0.6 46.8076 12)"/>
   <use style="fill:#00e900;stroke:none;" xlink:href="#GlCourierNewPS-BoldMT40" transform="matrix(0.6 0 0 0.6 50.4082 12)"/>
   <use style="fill:#00e900;stroke:none;" xlink:href="#GlCourierNewPS-BoldMT95" transform="matrix(0.6 0 0 0.6 54.0088 12)"/>
   <use style="fill:#00e900;stroke:none;" xlink:href="#GlCourierNewPS-BoldMT95" transform="matrix(0.6 0 0 0.6 57.6094 12)"/>
   <use style="fill:#00e900;stroke:none;" xlink:href="#GlCourierNewPS-BoldMT41" transform="matrix(0.6 0 0 0.6 68.4111 12)"/>
   <use style="fill:#00e900;stroke:none;" xlink:href="#GlCourierNewPS-BoldMT47" transform="matrix(0.6 0 0 0.6 75.6123 12)"/>
   <use style="fill:#00e900;stroke:none;" xlink:href="#GlCourierNewPS-BoldMT47" transform="matrix(0.6 0 0 0.6 82.8135 12)"/>
   <use style="fill:#00e900;stroke:none;" xlink:href="#GlCourierNewPS-BoldMT47" transform="matrix(0.6 0 0 0.6 90.0146 12)"/>
   <use style="fill:#00e900;stroke:none;" xlink:href="#GlCourierNewPS-BoldMT47" transform="matrix(0.6 0 0 0.6 97.2158 12)"/>
   <use style="fill:#00e900;stroke:none;" xlink:href="#GlCourierNewPS-BoldMT95" transform="matrix(0.6 0 0 0.6 100.816 12)"/>
   <use style="fill:#00e900;stroke:none;" xlink:href="#GlCourierNewPS-BoldMT47" transform="matrix(0.6 0 0 0.6 104.417 12)"/>
   <use style="fill:#00e900;stroke:none;" xlink:href="#GlCourierNewPS-BoldMT47" transform="matrix(0.6 0 0 0.6 111.618 12)"/>
   <use style="fill:#00e900;stroke:none;" xlink:href="#GlCourierNewPS-BoldMT124" transform="matrix(0.6 0 0 0.6 118.819 12)"/>
   <use style="fill:#00e900;stroke:none;" xlink:href="#GlCourierNewPS-BoldMT47" transform="matrix(0.6 0 0 0.6 122.42 12)"/>
   <use style="fill:#00e900;stroke:none;" xlink:href="#GlCourierNewPS-BoldMT124" transform="matrix(0.6 0 0 0.6 129.621 12)"/>
   <use style="fill:#00e900;stroke:none;" xlink:href="#GlCourierNewPS-BoldMT47" transform="matrix(0.6 0 0 0.6 133.222 12)"/>
   <use style="fill:#00e900;stroke:none;" xlink:href="#GlCourierNewPS-BoldMT40" transform="matrix(0.6 0 0 0.6 140.423 12)"/>
   <use style="fill:#00e900;stroke:none;" xlink:href="#GlCourierNewPS-BoldMT95" transform="matrix(0.6 0 0 0.6 144.023 12)"/>
   <use style="fill:#00e900;stroke:none;" xlink:href="#GlCourierNewPS-BoldMT95" transform="matrix(0.6 0 0 0.6 147.624 12)"/>
   <use style="fill:#00e900;stroke:none;" xlink:href="#GlCourierNewPS-BoldMT41" transform="matrix(0.6 0 0 0.6 158.426 12)"/>
   <use style="fill:#0000ff;stroke:none;" xlink:href="#GlCourierNewPS-BoldMT47" transform="matrix(0.6 0 0 0.6 0 18)"/>
   <use style="fill:#0000ff;stroke:none;" xlink:href="#GlCourierNewPS-BoldMT95" transform="matrix(0.6 0 0 0.6 3.60059 18)"/>
   <use style="fill:#0000ff;stroke:none;" xlink:href="#GlCourierNewPS-BoldMT47" transform="matrix(0.6 0 0 0.6 7.20117 18)"/>
   <use style="fill:#0000ff;stroke:none;" xlink:href="#GlCourierNewPS-BoldMT92" transform="matrix(0.6 0 0 0.6 10.8018 18)"/>
   <use style="fill:#0000ff;stroke:none;" xlink:href="#GlCourierNewPS-BoldMT95" transform="matrix(0.6 0 0 0.6 14.4023 18)"/>
   <use style="fill:#0000ff;stroke:none;" xlink:href="#GlCourierNewPS-BoldMT95" transform="matrix(0.6 0 0 0.6 18.0029 18)"/>
   <use style="fill:#0000ff;stroke:none;" xlink:href="#GlCourierNewPS-BoldMT95" transform="matrix(0.6 0 0 0.6 21.6035 18)"/>
   <use style="fill:#0000ff;stroke:none;" xlink:href="#GlCourierNewPS-BoldMT95" transform="matrix(0.6 0 0 0.6 25.2041 18)"/>
   <use style="fill:#0000ff;stroke:none;" xlink:href="#GlCourierNewPS-BoldMT47" transform="matrix(0.6 0 0 0.6 28.8047 18)"/>
   <use style="fill:#0000ff;stroke:none;" xlink:href="#GlCourierNewPS-BoldMT95" transform="matrix(0.6 0 0 0.6 32.4053 18)"/>
   <use style="fill:#0000ff;stroke:none;" xlink:href="#GlCourierNewPS-BoldMT95" transform="matrix(0.6 0 0 0.6 36.0059 18)"/>
   <use style="fill:#0000ff;stroke:none;" xlink:href="#GlCourierNewPS-BoldMT95" transform="matrix(0.6 0 0 0.6 39.6064 18)"/>
   <use style="fill:#0000ff;stroke:none;" xlink:href="#GlCourierNewPS-BoldMT95" transform="matrix(0.6 0 0 0.6 43.207 18)"/>
   <use style="fill:#0000ff;stroke:none;" xlink:href="#GlCourierNewPS-BoldMT47" transform="matrix(0.6 0 0 0.6 46.8076 18)"/>
   <use style="fill:#0000ff;stroke:none;" xlink:href="#GlCourierNewPS-BoldMT95" transform="matrix(0.6 0 0 0.6 50.4082 18)"/>
   <use style="fill:#0000ff;stroke:none;" xlink:href="#GlCourierNewPS-BoldMT95" transform="matrix(0.6 0 0 0.6 54.0088 18)"/>
   <use style="fill:#0000ff;stroke:none;" xlink:href="#GlCourierNewPS-BoldMT95" transform="matrix(0.6 0 0 0.6 57.6094 18)"/>
   <use style="fill:#0000ff;stroke:none;" xlink:href="#GlCourierNewPS-BoldMT95" transform="matrix(0.6 0 0 0.6 61.21 18)"/>
   <use style="fill:#0000ff;stroke:none;" xlink:href="#GlCourierNewPS-BoldMT47" transform="matrix(0.6 0 0 0.6 64.8105 18)"/>
   <use style="fill:#0000ff;stroke:none;" xlink:href="#GlCourierNewPS-BoldMT95" transform="matrix(0.6 0 0 0.6 68.4111 18)"/>
   <use style="fill:#0000ff;stroke:none;" xlink:href="#GlCourierNewPS-BoldMT47" transform="matrix(0.6 0 0 0.6 72.0117 18)"/>
   <use style="fill:#0000ff;stroke:none;" xlink:href="#GlCourierNewPS-BoldMT47" transform="matrix(0.6 0 0 0.6 79.2129 18)"/>
   <use style="fill:#0000ff;stroke:none;" xlink:href="#GlCourierNewPS-BoldMT95" transform="matrix(0.6 0 0 0.6 82.8135 18)"/>
   <use style="fill:#0000ff;stroke:none;" xlink:href="#GlCourierNewPS-BoldMT47" transform="matrix(0.6 0 0 0.6 86.4141 18)"/>
   <use style="fill:#0000ff;stroke:none;" xlink:href="#GlCourierNewPS-BoldMT92" transform="matrix(0.6 0 0 0.6 90.0146 18)"/>
   <use style="fill:#0000ff;stroke:none;" xlink:href="#GlCourierNewPS-BoldMT95" transform="matrix(0.6 0 0 0.6 93.6152 18)"/>
   <use style="fill:#0000ff;stroke:none;" xlink:href="#GlCourierNewPS-BoldMT95" transform="matrix(0.6 0 0 0.6 97.2158 18)"/>
   <use style="fill:#0000ff;stroke:none;" xlink:href="#GlCourierNewPS-BoldMT95" transform="matrix(0.6 0 0 0.6 100.816 18)"/>
   <use style="fill:#0000ff;stroke:none;" xlink:href="#GlCourierNewPS-BoldMT95" transform="matrix(0.6 0 0 0.6 104.417 18)"/>
   <use style="fill:#0000ff;stroke:none;" xlink:href="#GlCourierNewPS-BoldMT47" transform="matrix(0.6 0 0 0.6 108.018 18)"/>
   <use style="fill:#0000ff;stroke:none;" xlink:href="#GlCourierNewPS-BoldMT124" transform="matrix(0.6 0 0 0.6 111.618 18)"/>
   <use style="fill:#0000ff;stroke:none;" xlink:href="#GlCourierNewPS-BoldMT95" transform="matrix(0.6 0 0 0.6 115.219 18)"/>
   <use style="fill:#0000ff;stroke:none;" xlink:href="#GlCourierNewPS-BoldMT95" transform="matrix(0.6 0 0 0.6 118.819 18)"/>
   <use style="fill:#0000ff;stroke:none;" xlink:href="#GlCourierNewPS-BoldMT47" transform="matrix(0.6 0 0 0.6 122.42 18)"/>
   <use style="fill:#0000ff;stroke:none;" xlink:href="#GlCourierNewPS-BoldMT124" transform="matrix(0.6 0 0 0.6 126.021 18)"/>
   <use style="fill:#0000ff;stroke:none;" xlink:href="#GlCourierNewPS-BoldMT95" transform="matrix(0.6 0 0 0.6 129.621 18)"/>
   <use style="fill:#0000ff;stroke:none;" xlink:href="#GlCourierNewPS-BoldMT95" transform="matrix(0.6 0 0 0.6 133.222 18)"/>
   <use style="fill:#0000ff;stroke:none;" xlink:href="#GlCourierNewPS-BoldMT47" transform="matrix(0.6 0 0 0.6 136.822 18)"/>
   <use style="fill:#0000ff;stroke:none;" xlink:href="#GlCourierNewPS-BoldMT95" transform="matrix(0.6 0 0 0.6 140.423 18)"/>
   <use style="fill:#0000ff;stroke:none;" xlink:href="#GlCourierNewPS-BoldMT95" transform="matrix(0.6 0 0 0.6 144.023 18)"/>
   <use style="fill:#0000ff;stroke:none;" xlink:href="#GlCourierNewPS-BoldMT95" transform="matrix(0.6 0 0 0.6 147.624 18)"/>
   <use style="fill:#0000ff;stroke:none;" xlink:href="#GlCourierNewPS-BoldMT95" transform="matrix(0.6 0 0 0.6 151.225 18)"/>
   <use style="fill:#0000ff;stroke:none;" xlink:href="#GlCourierNewPS-BoldMT47" transform="matrix(0.6 0 0 0.6 154.825 18)"/>
   <path style="fill:none; stroke:none;" d="M0 0 L167 0 L167 27 L0 27 L0 0 Z"/>
  </g>
 </g>
</svg>
